# xmcd
#
# Track frame offsets:
#	150
#	18197
#	32309
#	54052
#	67354
#	83092
#	90226
#	109097
#	126229
#	143611
#	158631
#	171953
#	188376
#	204666
#	224355
#
# Disc length: 3055 seconds
#
# Revision: 1
# Processed by: cddbd v1.5.2PL0 Copyright (c) Steve Scherf et al.
# Submitted via: audiograbber 1.83.01
#
DISCID=ba0bed0f
DTITLE=The Believers - Row
DYEAR=2001
DGENRE=Americana
TTITLE0=The Believers
TTITLE1=Ain't Life Grand
TTITLE2=Sugar Coated Kisses
TTITLE3=Family Album
TTITLE4=Row
TTITLE5=The Treme
TTITLE6=Dear John
TTITLE7=Pour Down
TTITLE8=Daddy's Gone
TTITLE9=Birds Of A Feather
TTITLE10=White Trash Queen
TTITLE11=Shiny Penny
TTITLE12=90 Days
TTITLE13=Chasing Rainbows
TTITLE14=Goodnight
EXTD=
EXTT0=
EXTT1=
EXTT2=
EXTT3=
EXTT4=
EXTT5=
EXTT6=
EXTT7=
EXTT8=
EXTT9=
EXTT10=
EXTT11=
EXTT12=
EXTT13=
EXTT14=
PLAYORDER=
